<svg t="1712542328808" class="icon" viewBox="0 0 1024 1024" version="1.1" xmlns="http://www.w3.org/2000/svg" p-id="11167" width="200" height="200"><path d="M680.75 849.5v70.3125c0 23.29980469-18.88769531 42.1875-42.1875 42.1875H160.4375c-23.29980469 0-42.1875-18.88769531-42.1875-42.1875V272.9375c0-23.29980469 18.88769531-42.1875 42.1875-42.1875h126.5625v520.3125c0 54.27949219 44.15800781 98.4375 98.4375 98.4375h295.3125z m0-604.6875V62H385.4375c-23.29980469 0-42.1875 18.88769531-42.1875 42.1875v646.875c0 23.29980469 18.88769531 42.1875 42.1875 42.1875h478.125c23.29980469 0 42.1875-18.88769531 42.1875-42.1875V287H722.9375c-23.203125 0-42.1875-18.984375-42.1875-42.1875z m212.64433594-54.54316406L777.48066406 74.35566406A42.1875 42.1875 0 0 0 747.65058594 62H737v168.75h168.75v-10.65058594a42.1875 42.1875 0 0 0-12.35566406-29.83007812z" p-id="11168" fill="#00DC82"></path></svg>